<svg width="378.374573" height="329.389923" viewBox="0 0 378.375 329.39" fill="none" xmlns="http://www.w3.org/2000/svg" xmlns:xlink="http://www.w3.org/1999/xlink">
	<desc>
			Created with Pixso.
	</desc>
	<defs/>
	<path id="Vector 1" d="M376.03 42.74C388.96 100.88 303.61 167.8 205.44 160.02C123.87 153.56 82.66 175.18 57.15 201.77C6.65 254.39 41.73 319.55 41.73 319.55" stroke="#FFC527" stroke-opacity="1.000000" stroke-width="2.000000"/>
	<path id="Vector 2" d="M347.18 9.93C360.12 68.08 274.76 135 176.59 127.22C95.03 120.76 53.82 142.38 28.31 168.97C-22.2 221.59 12.89 286.75 12.89 286.75" stroke="#1D4169" stroke-opacity="1.000000" stroke-width="2.000000"/>
	<path id="Polygon 1" d="M344.54 3.23L342.79 9.87C342.59 10.61 343.27 11.29 344.02 11.09L350.65 9.29C351.39 9.09 351.64 8.16 351.09 7.62L346.21 2.78C345.67 2.24 344.74 2.49 344.54 3.23Z" fill="#1D4169" fill-opacity="1.000000" fill-rule="evenodd"/>
	<path id="Polygon 2" d="M45.98 324.67L45.98 317.81C45.98 317.04 45.15 316.56 44.48 316.94L38.53 320.37C37.87 320.76 37.87 321.72 38.53 322.1L44.48 325.54C45.15 325.92 45.98 325.44 45.98 324.67Z" fill="#FFC527" fill-opacity="1.000000" fill-rule="evenodd"/>
</svg>
