<svg width="867.000000" height="524.565002" viewBox="0 0 867 524.565" fill="none" xmlns="http://www.w3.org/2000/svg" xmlns:xlink="http://www.w3.org/1999/xlink">
	<desc>
			Created with Pixso.
	</desc>
	<defs/>
	<g opacity="0.150000">
		<path id="Vector 3" d="M461.73 520.23L461.73 208.15L461.73 163.72M461.73 208.15L406.83 186.48L292.3 227.65M116.59 276.62L116.59 253.66L116.59 230.91L116.59 208.15L232.68 163.72L292.3 184.31L292.3 227.65L292.3 251.49L292.3 275.33L292.3 299.57L292.3 316.51M406.83 186.48L406.83 208.15L406.83 520.23M292.3 251.49L406.83 208.15M292.3 275.33L347.21 298.09L347.21 342.52M292.3 275.33L232.68 298.09L232.68 321.93L232.68 342.52L292.3 364.19L292.3 416.2L292.3 438.29L292.3 524.56M232.68 321.93L292.3 299.57M292.3 416.2L347.21 437.87M347.21 391.28L347.21 520.23L347.21 437.87L347.21 391.28ZM292.3 416.2L174.64 461.71L174.64 481.22L174.64 520.23M174.64 481.22L292.3 438.29M232.68 342.52L232.68 253.66L174.64 230.91L116.59 253.66M232.68 163.72L232.68 184.31L232.68 208.15L232.68 163.72M232.68 184.31L116.59 230.91M116.59 253.66L58.54 275.33L58.54 299.57L58.54 415.49L58.54 437.52L58.54 459.54M174.64 230.91L174.64 253.66L174.64 411.87M58.54 299.57L116.59 276.62L174.64 253.66M58.54 275.33L58.54 415.49M58.54 415.49L116.59 437.87M58.54 415.49L0.5 437.87L0.5 459.54L0.5 481.22L58.54 505.06L58.54 520.23M0.5 459.54L58.54 437.52" stroke="#1D4169" stroke-opacity="1.000000" stroke-width="1.000000"/>
		<path id="Vector 4" d="M866.5 516.72L866.5 64.88L866.5 0.56M866.5 64.88L811.59 33.51L697.06 93.12M521.35 164.01L521.35 130.78L521.35 97.83L521.35 64.88L637.44 0.56L697.06 30.37L697.06 93.12L697.06 127.64L697.06 162.15L697.06 197.25L697.06 221.77M811.59 33.51L811.59 64.88L811.59 516.72M697.06 127.64L811.59 64.88M697.06 162.15L751.97 195.1L751.97 259.42M697.06 162.15L637.44 195.1L637.44 229.61L637.44 259.42L697.06 290.8L697.06 366.11L697.06 398.08L697.06 522.99M637.44 229.61L697.06 197.25M697.06 366.11L751.97 397.48M751.97 330.02L751.97 516.72L751.97 397.48L751.97 330.02ZM697.06 366.11L579.4 432L579.4 460.24L579.4 516.72M579.4 460.24L697.06 398.08M637.44 259.42L637.44 130.78L579.4 97.83L521.35 130.78M637.44 0.56L637.44 30.37L637.44 64.88L637.44 0.56M637.44 30.37L521.35 97.83M521.35 130.78L463.3 162.15L463.3 197.25L463.3 365.08L463.3 396.97L463.3 428.86M579.4 97.83L579.4 130.78L579.4 359.83M463.3 197.25L521.35 164.01L579.4 130.78M463.3 162.15L463.3 365.08M463.3 365.08L521.35 397.48M463.3 365.08L405.26 397.48L405.26 428.86L405.26 460.24L463.3 494.75L463.3 516.72M405.26 428.86L463.3 396.97" stroke="#1D4169" stroke-opacity="1.000000" stroke-width="1.000000"/>
	</g>
</svg>
