<svg width="911.000000" height="717.532471" viewBox="0 0 911 717.532" fill="none" xmlns="http://www.w3.org/2000/svg" xmlns:xlink="http://www.w3.org/1999/xlink">
	<desc>
			Created with Pixso.
	</desc>
	<defs/>
	<g opacity="0.150000">
		<path id="Vector 6" d="M910.5 708.92L910.5 88.81L910.5 0.53M910.5 88.81L802.16 45.74L576.21 127.56M229.54 224.86L229.54 179.24L229.54 134.02L229.54 88.81L458.59 0.53L576.21 41.44L576.21 127.56L576.21 174.93L576.21 222.3L576.21 270.47L576.21 304.12M802.16 45.74L802.16 88.81L802.16 708.92M576.21 174.93L802.16 88.81M576.21 222.3L684.54 267.52L684.54 355.8M576.21 222.3L458.59 267.52L458.59 314.89L458.59 355.8L576.21 398.86L576.21 502.21L576.21 546.1L576.21 717.53M458.59 314.89L576.21 270.47M576.21 502.21L684.54 545.28M684.54 452.69L684.54 708.92L684.54 545.28L684.54 452.69ZM576.21 502.21L344.07 592.65L344.07 631.4L344.07 708.92M344.07 631.4L576.21 546.1M458.59 355.8L458.59 179.24L344.07 134.02L229.54 179.24M458.59 0.53L458.59 41.44L458.59 88.81L458.59 0.53M458.59 41.44L229.54 134.02M229.54 179.24L115.02 222.3L115.02 270.47L115.02 500.81L115.02 544.58L115.02 588.34M344.07 134.02L344.07 179.24L344.07 493.6M115.02 270.47L229.54 224.86L344.07 179.24M115.02 222.3L115.02 500.81M115.02 500.81L229.54 545.28M115.02 500.81L0.5 545.28L0.5 588.34L0.5 631.4L115.02 678.77L115.02 708.92M0.5 588.34L115.02 544.58" stroke="#1D4169" stroke-opacity="1.000000" stroke-width="1.000000"/>
	</g>
</svg>
