<svg width="148.000000" height="118.287964" viewBox="0 0 148 118.288" fill="none" xmlns="http://www.w3.org/2000/svg" xmlns:xlink="http://www.w3.org/1999/xlink">
	<desc>
			Created with Pixso.
	</desc>
	<defs/>
	<path id="Vector 3" d="M147.5 116.87L147.5 15.03L147.5 0.53M147.5 15.03L130 7.95L93.5 21.39M37.49 37.37L37.5 29.88L37.5 22.45L37.5 15.03L74.5 0.53L93.5 7.25L93.5 21.39L93.5 29.17L93.5 36.95L93.5 44.86L93.5 50.39M130 7.95L130 15.03L130 116.87M93.5 29.17L130 15.03M93.5 36.95L111 44.38L111 58.88M93.5 36.95L74.5 44.38L74.5 52.16L74.5 58.88L93.5 65.95L93.5 82.92L93.5 90.13L93.5 118.28M74.5 52.16L93.5 44.86M93.5 82.92L111 89.99M111 74.79L111 116.87L111 89.99L111 74.79ZM93.5 82.92L56 97.77L56 104.14L56 116.87M56 104.14L93.5 90.13M74.5 58.88L74.5 29.88L56 22.45L37.5 29.88M74.5 0.53L74.5 7.25L74.5 15.03L74.5 0.53M74.5 7.25L37.5 22.45M37.5 29.88L19 36.95L19 44.86L19 82.69L19 89.88L19 97.07M56 22.45L56 29.88L56 81.51M19 44.86L37.49 37.37L56 29.88M19 36.95L19 82.69M19 82.69L37.5 89.99M19 82.69L0.5 89.99L0.5 97.07L0.5 104.14L19 111.92L19 116.87M0.5 97.07L19 89.88" stroke="#49644A" stroke-opacity="1.000000" stroke-width="1.000000"/>
</svg>
