<svg width="277.000000" height="167.564941" viewBox="0 0 277 167.565" fill="none" xmlns="http://www.w3.org/2000/svg" xmlns:xlink="http://www.w3.org/1999/xlink">
	<desc>
			Created with Pixso.
	</desc>
	<defs/>
	<path id="Vector 3" d="M129.5 166.18L129.5 66.72L129.5 52.56M129.5 66.72L147 59.81L183.5 72.94M239.5 88.54L239.5 81.22L239.5 73.97L239.5 66.72L202.5 52.56L183.5 59.12L183.5 72.94L183.5 80.53L183.5 88.13L183.5 95.86L183.5 101.25M147 59.81L147 66.72L147 166.18M183.5 80.53L147 66.72M183.5 88.13L166 95.38L166 109.54M183.5 88.13L202.5 95.38L202.5 102.98L202.5 109.54L183.5 116.45L183.5 133.03L183.5 140.06L183.5 167.56M202.5 102.98L183.5 95.86M183.5 133.03L166 139.93M166 125.08L166 166.18L166 139.93L166 125.08ZM183.5 133.03L221 147.53L221 153.75L221 166.18M221 153.75L183.5 140.06M202.5 109.54L202.5 81.22L221 73.97L239.5 81.22M202.5 52.56L202.5 59.12L202.5 66.72L202.5 52.56M202.5 59.12L239.5 73.97M239.5 81.22L258 88.13L258 95.86L258 132.8L258 139.82L258 146.84M221 73.97L221 81.22L221 131.64M258 95.86L239.5 88.54L221 81.22M258 88.13L258 132.8M258 132.8L239.5 139.93M258 132.8L276.5 139.93L276.5 146.84L276.5 153.75L258 161.34L258 166.18M276.5 146.84L258 139.82" stroke="#49644A" stroke-opacity="1.000000" stroke-width="1.000000"/>
	<path id="Vector 4" d="M0.5 165.06L0.5 21.06L0.5 0.56M0.5 21.06L18 11.06L54.5 30.06M110.5 52.65L110.5 42.06L110.5 31.56L110.5 21.06L73.5 0.56L54.5 10.06L54.5 30.06L54.5 41.06L54.5 52.06L54.5 63.25L54.5 71.06M18 11.06L18 21.06L18 165.06M54.5 41.06L18 21.06M54.5 52.06L37 62.56L37 83.06M54.5 52.06L73.5 62.56L73.5 73.56L73.5 83.06L54.5 93.06L54.5 117.06L54.5 127.25L54.5 167.06M73.5 73.56L54.5 63.25M54.5 117.06L37 127.06M37 105.56L37 165.06L37 127.06L37 105.56ZM54.5 117.06L92 138.06L92 147.06L92 165.06M92 147.06L54.5 127.25M73.5 83.06L73.5 42.06L92 31.56L110.5 42.06M73.5 0.56L73.5 10.06L73.5 21.06L73.5 0.56M73.5 10.06L110.5 31.56M110.5 42.06L129 52.06L129 63.25L129 116.73L129 126.9L129 137.06M92 31.56L92 42.06L92 115.06M129 63.25L110.5 52.65L92 42.06M129 52.06L129 116.73M129 116.73L110.5 127.06M129 116.73L147.5 127.06L147.5 137.06L147.5 147.06L129 158.06L129 165.06M147.5 137.06L129 126.9" stroke="#49644A" stroke-opacity="1.000000" stroke-width="1.000000"/>
</svg>
