<svg width="381.000000" height="332.000000" viewBox="0 0 381 332" fill="none" xmlns="http://www.w3.org/2000/svg" xmlns:xlink="http://www.w3.org/1999/xlink">
	<desc>
			Created with Pixso.
	</desc>
	<defs/>
	<path id="Vector 1" d="M378 43C391 101.5 305.19 168.82 206.5 161C124.5 154.5 83.07 176.25 57.42 203C6.65 255.94 41.92 321.5 41.92 321.5" stroke="#FFC527" stroke-opacity="1.000000" stroke-width="2.000000"/>
	<path id="Vector 2" d="M349 10C362 68.5 276.19 135.82 177.5 128C95.5 121.5 54.07 143.25 28.42 170C-22.35 222.94 12.92 288.5 12.92 288.5" stroke="#1D4169" stroke-opacity="1.000000" stroke-width="2.000000"/>
	<path id="Polygon 1" d="M346.34 3.24L344.57 9.94C344.38 10.68 345.06 11.36 345.8 11.16L352.49 9.35C353.23 9.14 353.48 8.21 352.93 7.67L348.01 2.79C347.47 2.25 346.54 2.5 346.34 3.24Z" fill="#1D4169" fill-opacity="1.000000" fill-rule="evenodd"/>
	<path id="Polygon 2" d="M46.19 326.66L46.19 319.73C46.19 318.96 45.36 318.48 44.69 318.86L38.69 322.32C38.03 322.71 38.03 323.67 38.69 324.06L44.69 327.52C45.36 327.91 46.19 327.43 46.19 326.66Z" fill="#FFC527" fill-opacity="1.000000" fill-rule="evenodd"/>
</svg>
